<svg width="48" height="48" viewBox="0 0 48 48" fill="none" xmlns="http://www.w3.org/2000/svg">
<g clip-path="url(#clip0)">
<path d="M26.5455 24.2L34.2375 16.508L35.8237 14.9218C36.0577 14.6878 36.0577 14.3075 35.8237 14.0735L34.1265 12.3763C34.1265 12.3763 33.5122 12.1415 33.2782 12.3755L24 21.6545L14.7218 12.3755C14.4878 12.1415 14.1075 12.1415 13.8735 12.3755L12.1755 14.0728C11.9415 14.3068 11.9415 14.687 12.1755 14.921L21.4545 24.2L12.1755 33.4783C11.9415 33.7122 11.9415 34.0925 12.1755 34.3265L13.8727 36.0238C14.1067 36.2577 14.487 36.2577 14.721 36.0238L24 26.7455L31.692 34.4375L33.2782 36.0238C33.5122 36.2577 33.8925 36.2577 34.1265 36.0238L35.8237 34.3265C36.0577 34.0925 36.0577 33.7122 35.8237 33.4783L26.5455 24.2Z" fill="#43494F"/>
</g>
<defs>
<clipPath id="clip0">
<rect width="24" height="38.4" fill="white" transform="translate(12 5)"/>
</clipPath>
</defs>
</svg>
