<svg xmlns="http://www.w3.org/2000/svg" height="43" viewBox="0 0 448.896 97.228" width="200">
  <g transform="translate(-75.729 -113.043)">
    <g transform="translate(193.515 136.413)">
      <path d="M197.374,130.318v44.06h-7.05v-44.06Z" fill="#002840" transform="translate(-153.084 -130.318)"/>
      <path d="M302.311,152.734v18.212h-7.05V153.91c-.058-4.524-3.172-7.343-7.108-7.343a6.987,6.987,0,0,0-7.051,7.166v17.213h-7.048V153.91c0-4.583-3.055-7.343-7.109-7.343a7.116,7.116,0,0,0-7.05,7.4v16.978h-7.05V140.633h7.05v3.524a11.69,11.69,0,0,1,8.988-4.113,11.912,11.912,0,0,1,10.1,5.169,13,13,0,0,1,10.574-5.169C296.438,140.045,302.252,144.746,302.311,152.734Z" fill="#002840" transform="translate(-131.024 -126.886)"/>
      <path d="M311.018,140.045v7.461c-6.814-.471-10.222,3.055-10.222,7.7v15.744h-7.05V140.633h7.05v4.288A12.972,12.972,0,0,1,311.018,140.045Z" fill="#002840" transform="translate(-116.594 -126.886)"/>
      <path d="M338.148,158.315H314.3a8.858,8.858,0,0,0,9.048,6.933,9.17,9.17,0,0,0,8.459-4.877l5.875,2.469a15.354,15.354,0,0,1-13.981,8.693c-9.635,0-16.273-6.991-16.273-15.744a15.4,15.4,0,0,1,15.685-15.744C331.8,140.045,339.911,147.272,338.148,158.315Zm-23.791-5.345H331.8a8.778,8.778,0,0,0-8.519-6.638A8.978,8.978,0,0,0,314.357,152.97Z" fill="#002840" transform="translate(-111.769 -126.886)"/>
      <path d="M364.87,140.633v30.313h-7.05v-4.054a12.843,12.843,0,0,1-10.164,4.642c-8.459,0-14.744-6.462-14.744-15.744s6.285-15.744,14.744-15.744a12.85,12.85,0,0,1,10.164,4.64v-4.052Zm-7.05,15.156c0-5.17-3.759-9.341-8.93-9.341s-8.811,4.171-8.811,9.341,3.642,9.341,8.811,9.341S357.82,160.958,357.82,155.789Z" fill="#002840" transform="translate(-102.776 -126.886)"/>
      <path d="M360.179,155.789a15.8,15.8,0,0,1,30.371-6.05l-6.521,2.232a8.992,8.992,0,0,0-8.048-5.4c-5.287,0-8.754,4.111-8.754,9.222a8.795,8.795,0,0,0,17.037,3.467l6.345,2.466a15.513,15.513,0,0,1-14.746,9.811A15.333,15.333,0,0,1,360.179,155.789Z" fill="#002840" transform="translate(-93.156 -126.886)"/>
      <path d="M415.29,156.813v17.565H408.24V157.929c0-4.995-3.467-7.93-7.756-7.93a7.688,7.688,0,0,0-7.812,8.048v16.331h-7.051v-44.06h7.051V148a12.573,12.573,0,0,1,9.693-4.524C409.356,143.477,415.29,148.412,415.29,156.813Z" fill="#002840" transform="translate(-84.179 -130.318)"/>
      <path d="M169.846,146.219h0v-15.9H162.8v44.06h7.05v-2.159h0a15.855,15.855,0,0,0,8.628,2.45,16.3,16.3,0,0,0,5.939-1.1,15.777,15.777,0,0,0-.039-28.718,16.312,16.312,0,0,0-5.9-1.084,15.851,15.851,0,0,0-8.628,2.45h0m7.808,22.227a8.68,8.68,0,0,1-7.808-4.663,9.833,9.833,0,0,1,0-9.121A8.681,8.681,0,0,1,177.654,150a9.228,9.228,0,0,1,0,18.446Z" fill="#002840" transform="translate(-162.796 -130.318)"/>
      <g transform="translate(49.517 13.159)">
        <path d="M199.4,155.786a15.98,15.98,0,1,1,15.981,15.747A15.51,15.51,0,0,1,199.4,155.786Zm15.981,9.228a9.23,9.23,0,1,0-8.931-9.228A8.957,8.957,0,0,0,215.38,165.014Z" fill="#002840" transform="translate(-199.399 -140.045)"/>
      </g>
      <g transform="translate(84.993 13.159)">
        <path d="M225.623,155.786A15.981,15.981,0,1,1,241.6,171.533,15.511,15.511,0,0,1,225.623,155.786Zm15.981,9.228a9.23,9.23,0,1,0-8.93-9.228A8.957,8.957,0,0,0,241.6,165.014Z" fill="#002840" transform="translate(-225.623 -140.045)"/>
      </g>
    </g>
    <g transform="translate(75.729 113.043)">
      <circle cx="48.614" cy="48.614" fill="#ffd500" r="48.614"/>
      <g transform="translate(36.113 23.37)">
        <path d="M124.778,141.922l-2.382,6.057a8.9,8.9,0,0,1,4.1,7.629,8.634,8.634,0,1,1-9.014-8.892l2.239-6.211c-9.011-1.195-17.278,5.254-17.278,14.7l-.019-.009v15.626h6.813v-2.451a15.849,15.849,0,0,0,8.63,2.451,15.229,15.229,0,0,0,6.912-28.9Z" fill="#002840" transform="translate(-102.424 -126.774)"/>
        <path d="M102.424,144.724a20.908,20.908,0,0,1,6.8-4.621v-9.785h-6.8Z" fill="#002840" transform="translate(-102.424 -130.318)"/>
      </g>
    </g>
  </g>
</svg>
